<?xml version="1.0" standalone="no"?>
<!DOCTYPE svg PUBLIC "-//W3C//DTD SVG 20010904//EN"
 "http://www.w3.org/TR/2001/REC-SVG-20010904/DTD/svg10.dtd">
<svg version="1.0" xmlns="http://www.w3.org/2000/svg"
 width="336.000000pt" height="449.000000pt" viewBox="0 0 336.000000 449.000000"
 preserveAspectRatio="xMidYMid meet">

<g transform="translate(0.000000,449.000000) scale(0.100000,-0.100000)"
fill="#000000" stroke="none">
<path d="M170 4459 c-65 -29 -127 -94 -150 -157 -20 -52 -20 -81 -20 -2177 l0
-2125 1680 0 1680 0 0 2125 c0 2096 0 2125 -20 2177 -23 63 -85 128 -150 157
-45 20 -59 21 -1510 21 -1451 0 -1465 -1 -1510 -21z m2994 -112 c25 -14 48
-39 63 -66 23 -44 23 -48 23 -368 l0 -323 -1570 0 -1570 0 0 323 c0 320 0 324
23 368 15 27 38 52 63 66 l39 23 1445 0 1445 0 39 -23z m84 -2439 l2 -1568
-1570 0 -1570 0 0 1563 c0 860 3 1567 7 1570 3 4 709 6 1567 5 l1561 -3 3
-1567z m2 -1733 l0 -55 -1570 0 -1570 0 0 55 0 55 1570 0 1570 0 0 -55z"/>
<path d="M2706 4244 c-70 -22 -149 -103 -170 -174 -9 -30 -16 -70 -16 -90 0
-150 130 -280 280 -280 150 0 280 130 280 280 0 152 -132 282 -284 279 -23 0
-63 -7 -90 -15z m146 -104 c21 -6 51 -27 71 -49 86 -95 41 -239 -84 -272 -40
-11 -53 -10 -93 5 -42 16 -96 65 -96 87 0 5 34 9 75 9 l75 0 0 60 0 60 -75 0
c-41 0 -75 4 -75 9 0 20 46 65 84 82 47 21 67 23 118 9z"/>
<path d="M445 4183 c-77 -40 -109 -99 -103 -189 3 -52 9 -70 35 -101 53 -66
83 -78 213 -81 135 -5 186 6 236 50 81 72 93 180 27 266 -45 60 -85 72 -240
72 -106 -1 -145 -4 -168 -17z m309 -114 c33 -26 36 -84 6 -117 -26 -27 -69
-35 -174 -31 -73 4 -88 7 -110 28 -35 33 -35 83 -1 116 23 24 30 25 138 25
100 0 117 -3 141 -21z"/>
<path d="M1168 4180 c-92 -49 -129 -167 -82 -261 20 -40 79 -87 126 -100 25
-6 91 -10 158 -7 130 3 160 15 213 81 57 69 46 201 -19 258 -48 42 -79 49
-221 49 -117 -1 -144 -4 -175 -20z m317 -115 c34 -33 34 -83 -1 -116 -22 -21
-37 -24 -110 -28 -149 -6 -194 15 -194 88 0 31 6 44 26 60 24 18 41 21 141 21
108 0 115 -1 138 -25z"/>
<path d="M1550 3134 c-14 -2 -56 -9 -95 -15 -103 -16 -247 -65 -355 -119 -351
-177 -591 -489 -680 -885 -30 -131 -33 -366 -7 -497 55 -274 176 -498 375
-690 247 -239 548 -361 892 -361 343 0 645 122 892 361 197 191 322 420 375
690 25 130 23 357 -5 489 -110 516 -494 898 -1012 1009 -71 15 -327 27 -380
18z m299 -120 c753 -111 1203 -893 921 -1601 -125 -315 -395 -568 -721 -677
-224 -75 -514 -75 -738 0 -575 192 -912 792 -776 1378 78 337 298 623 600 778
236 121 461 159 714 122z"/>
<path d="M1525 2846 c-312 -49 -583 -242 -731 -520 -85 -161 -119 -298 -118
-481 1 -274 100 -512 293 -706 130 -130 284 -217 466 -265 145 -38 345 -38
490 0 182 48 336 135 466 265 130 130 217 284 265 466 22 83 27 123 28 235 1
138 -9 203 -46 320 -149 467 -626 761 -1113 686z m272 -107 c301 -41 563 -234
692 -511 37 -78 71 -185 71 -223 0 -15 -3 -14 -27 3 -102 72 -260 122 -382
122 -186 -1 -331 -69 -524 -249 -43 -39 -105 -90 -139 -112 -196 -126 -439
-104 -651 58 -56 44 -57 45 -51 86 36 275 108 425 287 594 94 89 200 152 325
193 150 48 258 59 399 39z m477 -739 c91 -23 193 -74 257 -130 46 -39 46 -40
42 -92 -33 -392 -326 -722 -714 -803 -92 -20 -260 -19 -357 1 -328 67 -582
302 -682 631 -31 104 -27 109 48 63 133 -79 311 -115 443 -87 153 31 253 86
396 219 212 196 366 250 567 198z"/>
</g>
</svg>
