<?xml version="1.0" standalone="no"?>
<!DOCTYPE svg PUBLIC "-//W3C//DTD SVG 20010904//EN"
 "http://www.w3.org/TR/2001/REC-SVG-20010904/DTD/svg10.dtd">
<svg version="1.0" xmlns="http://www.w3.org/2000/svg"
 width="428.000000pt" height="526.000000pt" viewBox="0 0 428.000000 526.000000"
 preserveAspectRatio="xMidYMid meet">

<g transform="translate(0.000000,526.000000) scale(0.100000,-0.100000)"
fill="#000000" stroke="none">
<path d="M39 5231 l-29 -29 0 -716 0 -716 2130 0 2130 0 0 716 0 716 -29 29
-29 29 -2072 0 -2072 0 -29 -29z m695 -336 c194 -51 322 -245 289 -438 -15
-88 -49 -154 -113 -218 -65 -65 -126 -97 -214 -112 -127 -21 -242 18 -342 117
-82 82 -108 147 -108 271 0 112 25 182 91 256 108 119 248 163 397 124z m1571
-23 c80 -38 152 -108 191 -187 27 -55 29 -69 29 -170 0 -101 -2 -115 -28 -168
-40 -80 -112 -151 -194 -190 -62 -29 -76 -32 -163 -32 -85 1 -102 4 -163 32
-81 38 -154 110 -194 190 -26 53 -28 67 -28 168 0 101 2 115 29 170 50 102
155 187 263 215 71 18 186 5 258 -28z m1490 8 c84 -32 183 -131 215 -215 60
-159 23 -324 -98 -437 -119 -111 -293 -137 -440 -66 -61 28 -152 120 -181 181
-129 269 77 579 374 563 40 -2 95 -13 130 -26z"/>
<path d="M545 4721 c-179 -82 -179 -330 0 -412 143 -66 315 47 315 206 0 159
-172 272 -315 206z"/>
<path d="M2065 4729 c-84 -24 -148 -117 -148 -214 0 -233 301 -311 420 -108
21 37 27 59 27 107 -1 158 -144 261 -299 215z"/>
<path d="M3555 4721 c-148 -68 -180 -257 -64 -368 142 -134 378 -35 379 159 1
163 -170 276 -315 209z"/>
<path d="M10 1836 l0 -1764 26 -31 26 -31 2078 0 2078 0 26 31 26 31 0 1764 0
1764 -2130 0 -2130 0 0 -1764z m2408 1505 c283 -60 531 -192 727 -385 556
-548 591 -1402 81 -1998 -69 -81 -192 -189 -291 -255 -147 -99 -364 -186 -545
-220 -144 -26 -402 -24 -540 6 -299 64 -526 187 -741 401 -211 210 -335 438
-401 738 -31 140 -31 434 0 574 90 407 318 734 665 951 157 99 382 180 572
206 109 15 364 5 473 -18z"/>
<path d="M1930 3185 c-275 -46 -519 -174 -712 -373 -216 -223 -344 -499 -364
-788 -8 -106 -21 -95 131 -115 118 -15 331 -6 466 20 136 27 258 62 549 156
511 166 826 225 1203 225 99 0 147 4 147 11 0 22 -62 163 -100 230 -240 410
-659 652 -1125 648 -66 -1 -154 -7 -195 -14z"/>
<path d="M2945 2133 c-259 -22 -501 -80 -945 -225 -492 -160 -761 -202 -1047
-164 -77 10 -93 9 -93 -2 0 -33 34 -172 62 -250 68 -193 156 -332 307 -483
150 -150 290 -239 481 -307 154 -54 237 -67 430 -67 157 1 186 4 283 28 385
96 683 332 857 677 95 189 134 358 135 575 0 170 -7 211 -38 219 -23 6 -360 5
-432 -1z"/>
</g>
</svg>
