<?xml version="1.0" standalone="no"?>
<!DOCTYPE svg PUBLIC "-//W3C//DTD SVG 20010904//EN"
 "http://www.w3.org/TR/2001/REC-SVG-20010904/DTD/svg10.dtd">
<svg version="1.0" xmlns="http://www.w3.org/2000/svg"
 width="511.000000pt" height="275.000000pt" viewBox="0 0 511.000000 275.000000"
 preserveAspectRatio="xMidYMid meet">
<metadata>
Created by potrace 1.16, written by Peter Selinger 2001-2019
</metadata>
<g transform="translate(0.000000,275.000000) scale(0.100000,-0.100000)"
fill="#000000" stroke="none">
<path d="M1525 2743 c-85 -21 -125 -71 -125 -155 0 -66 14 -95 113 -231 92
-125 156 -186 246 -230 l66 -32 921 -3 921 -2 105 -283 105 -282 -181 -7
c-1134 -43 -1704 -123 -2301 -322 -618 -207 -1079 -537 -1330 -953 -44 -74
-47 -128 -9 -164 l26 -24 2471 -3 c1848 -2 2479 1 2500 9 57 24 57 27 57 522
0 420 -1 460 -20 531 -26 101 -69 177 -144 251 -96 94 -233 155 -349 155 l-45
0 -26 68 c-14 37 -102 273 -195 525 -94 251 -179 470 -190 486 -33 45 -100
102 -150 125 l-46 21 -1200 1 c-660 1 -1209 0 -1220 -3z m2392 -202 c23 -11
49 -31 58 -45 16 -24 365 -951 365 -968 0 -5 -57 -8 -128 -8 l-127 0 -130 353
c-94 254 -137 360 -157 380 l-26 27 -940 0 -940 0 -64 33 c-53 27 -73 46 -131
122 -37 50 -72 98 -78 108 -9 16 47 17 1123 17 1090 0 1135 -1 1175 -19z m796
-1245 c71 -36 140 -108 175 -184 l27 -57 3 -407 3 -408 -2311 0 -2311 0 33 46
c18 26 74 89 125 140 l92 94 1831 0 c2007 0 1873 -4 1900 59 16 39 5 86 -27
111 -26 20 -38 20 -1737 20 l-1711 0 85 51 c421 249 1005 415 1755 498 457 51
869 69 1535 67 l475 -1 58 -29z"/>
</g>
</svg>
