<?xml version="1.0" standalone="no"?>
<!DOCTYPE svg PUBLIC "-//W3C//DTD SVG 20010904//EN"
 "http://www.w3.org/TR/2001/REC-SVG-20010904/DTD/svg10.dtd">
<svg version="1.0" xmlns="http://www.w3.org/2000/svg"
 width="700.000000pt" height="700.000000pt" viewBox="0 0 700.000000 700.000000"
 preserveAspectRatio="xMidYMid meet">
<metadata>
Created by potrace 1.16, written by Peter Selinger 2001-2019
</metadata>
<g transform="translate(0.000000,700.000000) scale(0.100000,-0.100000)"
fill="#000000" stroke="none">
<path d="M3173 6390 c-487 -76 -900 -291 -1249 -651 -385 -398 -604 -939 -604
-1491 0 -323 109 -648 356 -1059 203 -337 394 -592 1024 -1364 401 -491 580
-722 729 -938 29 -42 57 -77 61 -77 5 0 34 37 66 83 162 233 383 513 834 1057
344 415 487 595 638 799 333 453 528 816 606 1131 35 144 46 224 46 365 0 654
-299 1276 -815 1690 -290 234 -611 378 -1000 451 -143 26 -534 29 -692 4z
m622 -400 c559 -95 1030 -446 1284 -956 234 -470 234 -1040 -1 -1509 -242
-484 -674 -822 -1199 -939 -687 -153 -1401 122 -1814 699 -77 107 -182 307
-223 426 -263 750 22 1575 698 2019 366 240 819 334 1255 260z"/>
<path d="M3315 5489 c-397 -51 -748 -307 -921 -673 -330 -698 81 -1522 838
-1676 142 -30 334 -29 478 0 554 113 950 598 950 1165 0 199 -41 368 -133 548
-226 444 -712 699 -1212 636z m390 -534 c169 -44 295 -180 327 -353 34 -182
-70 -376 -247 -463 l-70 -34 -212 -3 -213 -3 0 -274 c0 -240 -2 -274 -16 -279
-20 -8 -208 -8 -228 0 -14 6 -16 77 -16 708 0 387 3 706 7 709 3 4 142 7 308
7 238 0 313 -3 360 -15z"/>
<path d="M3070 4256 l0 -666 90 0 90 0 2 273 3 272 220 5 220 5 67 32 c89 42
151 101 191 182 30 62 32 72 32 176 0 100 -3 115 -28 166 -35 72 -114 151
-186 186 l-56 28 -322 3 -323 3 0 -665z m601 479 c94 -33 159 -137 144 -230
-9 -61 -60 -134 -114 -162 -43 -23 -52 -23 -245 -21 l-201 3 -3 200 c-1 110 0
205 2 212 8 20 359 18 417 -2z"/>
<path d="M3290 4530 l0 -170 173 0 c195 0 235 11 278 71 35 50 39 142 7 189
-13 19 -39 45 -57 57 -32 22 -43 23 -217 23 l-184 0 0 -170z"/>
</g>
</svg>
