<?xml version="1.0" standalone="no"?>
<!DOCTYPE svg PUBLIC "-//W3C//DTD SVG 20010904//EN"
 "http://www.w3.org/TR/2001/REC-SVG-20010904/DTD/svg10.dtd">
<svg version="1.0" xmlns="http://www.w3.org/2000/svg"
 width="514.000000pt" height="530.000000pt" viewBox="0 0 514.000000 530.000000"
 preserveAspectRatio="xMidYMid meet">
<metadata>
Created by potrace 1.16, written by Peter Selinger 2001-2019
</metadata>
<g transform="translate(0.000000,530.000000) scale(0.100000,-0.100000)"
fill="#000000" stroke="none">
<path d="M3853 5285 c-11 -8 -42 -58 -68 -112 -39 -80 -61 -111 -124 -173 -42
-41 -95 -90 -119 -108 -38 -30 -42 -38 -42 -76 0 -49 7 -60 77 -110 87 -62
160 -151 210 -256 26 -52 53 -100 62 -107 20 -15 76 -17 102 -2 11 5 37 47 58
92 50 107 115 194 187 248 94 71 114 94 114 129 0 46 -13 63 -84 114 -93 66
-151 137 -207 253 -28 57 -59 107 -69 113 -27 15 -72 12 -97 -5z m189 -456
c18 -10 15 -15 -44 -77 -35 -37 -70 -78 -79 -91 l-15 -24 -34 44 c-18 24 -53
64 -77 89 l-43 46 41 39 c22 22 56 61 75 87 l35 48 61 -75 c33 -42 69 -80 80
-86z"/>
<path d="M1915 4937 c-106 -36 -187 -105 -228 -195 -18 -38 -22 -66 -22 -147
0 -89 3 -106 28 -156 33 -69 100 -132 173 -166 54 -24 54 -25 54 -69 l0 -44
-584 0 -585 0 -24 -22 c-23 -22 -611 -859 -636 -905 -8 -16 -11 -417 -9 -1583
l3 -1562 28 -24 28 -24 1865 0 c1399 0 1871 3 1887 12 12 6 27 18 34 27 10 12
12 367 13 1582 l0 1567 -37 53 c-177 259 -600 857 -612 866 -12 9 -157 12
-603 13 l-588 0 0 108 c0 100 -2 110 -22 129 -13 12 -43 24 -68 28 -103 16
-164 80 -164 170 0 64 28 112 84 144 102 57 231 -3 246 -116 9 -61 25 -93 55
-108 35 -19 53 -19 88 0 43 22 56 65 43 137 -32 173 -158 285 -329 294 -49 2
-93 -1 -118 -9z m-375 -967 c0 -6 -9 -48 -21 -95 l-21 -84 -277 -92 c-152 -50
-294 -101 -316 -112 -228 -114 -405 -346 -457 -597 -10 -52 -13 -279 -13
-1133 l0 -1069 28 -24 c28 -24 29 -24 263 -24 l234 0 0 -148 c0 -135 2 -150
20 -170 11 -12 31 -24 44 -28 13 -3 160 -4 327 -2 302 3 304 4 383 31 92 32
150 65 224 125 l52 42 68 -51 c37 -29 99 -67 137 -85 120 -55 189 -64 509 -64
l285 0 28 24 28 24 3 151 3 151 225 0 c228 0 254 4 281 39 16 21 19 2096 2
2187 -46 260 -216 494 -449 615 -25 13 -171 66 -325 119 l-279 95 -18 70 c-9
39 -20 80 -23 93 l-5 22 353 0 353 0 287 -410 287 -410 0 -1470 0 -1470 -1745
0 -1745 0 0 1474 0 1473 261 374 c144 206 272 389 286 407 l24 32 350 0 c234
0 349 -3 349 -10z m380 -75 l0 -85 -114 0 -113 0 20 85 21 85 93 0 93 0 0 -85z
m380 43 c6 -24 15 -59 21 -78 5 -19 9 -38 9 -42 0 -5 -52 -8 -115 -8 l-115 0
0 85 0 85 95 0 94 0 11 -42z m30 -315 c0 -5 -8 -43 -17 -85 l-18 -78 -282 0
-283 0 -6 28 c-10 46 -25 106 -30 125 -5 16 15 17 315 17 177 0 321 -3 321 -7z
m-726 -444 c51 -219 92 -399 90 -399 -14 0 -174 105 -174 114 0 7 14 52 30
101 17 49 30 101 30 116 0 40 -30 71 -109 109 l-71 34 2 155 3 154 50 17 c28
10 52 13 54 8 2 -5 45 -189 95 -409z m1016 231 l0 -156 -71 -35 c-113 -54
-121 -79 -69 -233 17 -53 30 -99 29 -101 -11 -10 -173 -104 -176 -101 -2 2
172 770 182 803 3 8 17 7 54 -5 l51 -16 0 -156z m-1400 -78 c0 -195 1 -197 91
-242 32 -17 59 -32 59 -33 0 -2 -13 -43 -30 -92 -38 -113 -39 -148 -2 -183 15
-15 114 -79 220 -142 l192 -115 0 -740 0 -740 -67 -100 c-80 -120 -167 -209
-260 -264 -69 -41 -175 -82 -245 -95 l-38 -7 0 301 0 300 193 0 c180 0 195 1
215 20 41 39 41 101 0 140 -20 19 -35 20 -215 20 l-193 0 0 1059 0 1058 33 11
c17 5 35 10 40 11 4 1 7 -74 7 -167z m1629 157 l31 -11 0 -489 0 -489 -144 0
c-129 0 -146 -2 -169 -20 -46 -36 -45 -111 2 -147 11 -8 63 -12 164 -13 l147
0 0 -480 0 -480 -190 0 c-189 0 -191 0 -215 -25 -35 -34 -35 -96 0 -130 24
-25 26 -25 215 -25 l190 0 0 -300 0 -300 -27 6 c-222 49 -371 152 -504 351
l-69 102 0 745 0 745 209 125 c258 155 250 143 199 298 l-36 109 61 31 c34 17
67 38 74 47 9 11 12 68 13 189 0 94 4 172 9 172 4 0 22 -5 40 -11z m-1889
-1154 l0 -1065 -170 0 -170 0 0 818 c0 914 -2 881 71 1029 45 92 139 201 216
252 25 17 48 31 50 31 2 0 3 -479 3 -1065z m2287 915 c60 -72 114 -174 140
-265 16 -54 18 -137 21 -887 l3 -828 -171 0 -170 0 0 1066 0 1065 62 -43 c34
-24 86 -72 115 -108z m-997 24 c0 -3 -34 -152 -75 -331 l-75 -325 0 -824 0
-825 82 -122 c45 -67 112 -153 148 -190 56 -57 63 -67 41 -62 -88 20 -219 111
-272 189 -52 77 -115 72 -184 -12 -74 -89 -175 -158 -263 -178 -23 -5 -15 6
45 67 40 41 108 128 152 194 l81 119 0 811 0 811 -70 305 c-39 167 -75 321
-79 342 l-9 37 239 0 c131 0 239 -3 239 -6z m-1290 -2269 l0 -85 -170 0 -170
0 0 85 0 85 170 0 170 0 0 -85z m2450 0 l0 -85 -170 0 -170 0 0 85 0 85 170 0
170 0 0 -85z"/>
<path d="M4588 4849 c-10 -5 -36 -48 -58 -94 -40 -84 -90 -143 -204 -242 -46
-39 -48 -44 -43 -80 5 -28 16 -46 44 -68 110 -87 155 -140 199 -231 44 -92 66
-114 117 -114 38 0 66 28 97 98 41 89 99 163 168 214 74 56 81 65 82 112 0 33
-6 44 -37 70 -106 88 -171 163 -208 241 -20 44 -45 85 -54 92 -19 15 -79 16
-103 2z m147 -409 c0 -4 -24 -33 -52 -64 -29 -32 -53 -54 -53 -49 0 5 -23 35
-51 66 -28 31 -46 57 -41 57 5 0 29 25 53 55 l44 55 50 -57 c27 -31 50 -60 50
-63z"/>
<path d="M4068 4195 c-18 -10 -40 -42 -67 -100 -40 -85 -100 -155 -199 -233
-37 -29 -42 -38 -42 -73 0 -44 4 -49 115 -143 63 -54 118 -133 142 -202 18
-54 45 -74 98 -74 47 0 73 22 95 80 33 87 93 166 175 227 113 85 113 135 0
218 -72 53 -123 117 -165 207 -17 36 -39 73 -49 82 -26 23 -72 28 -103 11z
m100 -355 l50 -55 -53 -57 -53 -57 -49 57 -50 57 46 57 c25 31 49 56 52 55 4
-1 29 -27 57 -57z"/>
</g>
</svg>
