<?xml version="1.0" standalone="no"?>
<!DOCTYPE svg PUBLIC "-//W3C//DTD SVG 20010904//EN"
 "http://www.w3.org/TR/2001/REC-SVG-20010904/DTD/svg10.dtd">
<svg version="1.0" xmlns="http://www.w3.org/2000/svg"
 width="553.000000pt" height="538.000000pt" viewBox="0 0 553.000000 538.000000"
 preserveAspectRatio="xMidYMid meet">
<metadata>
Created by potrace 1.16, written by Peter Selinger 2001-2019
</metadata>
<g transform="translate(0.000000,538.000000) scale(0.100000,-0.100000)"
fill="#000000" stroke="none">
<path d="M1460 5120 l0 -90 -85 0 -85 0 0 -90 0 -90 85 0 85 0 0 -85 0 -85 95
0 95 0 0 85 0 85 85 0 85 0 0 90 0 90 -85 0 -85 0 0 90 0 90 -95 0 -95 0 0
-90z"/>
<path d="M2660 5195 c-100 -28 -192 -96 -250 -183 -36 -54 -70 -158 -70 -213
l0 -39 90 0 c68 0 90 3 90 13 0 44 36 123 73 164 53 58 112 85 187 85 75 0
134 -27 187 -85 76 -83 89 -185 37 -288 -39 -78 -134 -139 -216 -139 -33 0
-67 -16 -85 -39 -9 -11 -12 -66 -13 -177 l0 -162 -47 -20 c-27 -11 -154 -64
-283 -117 -129 -53 -236 -98 -238 -99 -5 -6 64 -159 74 -163 6 -2 137 48 290
111 153 64 285 116 294 116 9 0 141 -52 295 -115 153 -64 283 -114 289 -112
10 4 79 157 74 163 -2 1 -97 41 -213 89 -115 48 -243 100 -283 117 l-73 30 3
100 3 100 62 23 c113 40 190 113 246 233 30 63 32 74 32 177 -1 90 -5 120 -23
165 -45 111 -143 210 -252 251 -73 28 -205 34 -280 14z"/>
<path d="M3910 5120 l0 -90 -85 0 -85 0 0 -90 0 -90 85 0 85 0 0 -85 0 -85 95
0 95 0 0 85 0 85 85 0 85 0 0 90 0 90 -85 0 -85 0 0 90 0 90 -95 0 -95 0 0
-90z"/>
<path d="M330 4420 l0 -90 -90 0 -90 0 0 -90 0 -90 90 0 90 0 0 -85 0 -85 90
0 90 0 0 85 0 85 85 0 85 0 0 90 0 90 -85 0 -85 0 0 90 0 90 -90 0 -90 0 0
-90z"/>
<path d="M5050 4420 l0 -90 -85 0 -85 0 0 -90 0 -90 85 0 85 0 0 -85 0 -85 90
0 90 0 0 85 0 85 90 0 90 0 0 90 0 90 -90 0 -90 0 0 90 0 90 -90 0 -90 0 0
-90z"/>
<path d="M1800 3767 c-53 -15 -120 -47 -120 -56 0 -3 169 -175 375 -381 l375
-375 117 118 118 117 -255 255 c-226 227 -263 260 -327 292 -60 30 -83 36
-155 39 -50 2 -101 -1 -128 -9z"/>
<path d="M3550 3767 c-98 -28 -124 -50 -390 -314 l-265 -263 118 -117 117
-118 378 378 c419 420 391 380 292 421 -58 23 -190 30 -250 13z"/>
<path d="M1209 3331 c-234 -98 -454 -193 -490 -212 -42 -22 -96 -65 -160 -129
-86 -85 -102 -107 -147 -200 -87 -182 -82 -84 -82 -1499 l0 -1251 310 0 310 0
0 1023 0 1022 98 98 98 97 54 -55 54 -55 -72 -73 -72 -72 0 -993 0 -992 795 0
795 0 0 45 0 45 80 0 80 0 0 -45 0 -45 795 0 795 0 0 992 0 993 -72 72 -72 73
54 55 54 55 98 -97 98 -98 0 -1022 0 -1023 310 0 310 0 0 1251 c0 1415 5 1317
-82 1499 -45 93 -61 115 -147 200 -68 68 -116 106 -166 132 -38 20 -261 115
-495 212 l-424 176 -376 -375 c-342 -341 -379 -375 -409 -375 -28 0 -49 16
-152 117 l-119 116 0 -466 0 -467 -80 0 -80 0 0 467 0 466 -119 -116 c-103
-101 -124 -117 -152 -117 -30 0 -67 34 -409 375 -206 206 -378 375 -380 374
-3 -1 -197 -81 -431 -178z m2848 -1305 l28 -24 3 -241 c3 -260 -3 -322 -43
-409 -153 -334 -627 -334 -780 -1 -38 85 -45 143 -45 401 l0 240 29 29 29 29
376 0 375 0 28 -24z m-1197 -231 l0 -85 -80 0 -80 0 0 85 0 85 80 0 80 0 0
-85z m0 -875 l0 -610 -80 0 -80 0 0 610 0 610 80 0 80 0 0 -610z"/>
<path d="M3390 1673 c0 -230 5 -253 69 -325 98 -112 294 -112 392 0 64 72 69
95 69 325 l0 207 -265 0 -265 0 0 -207z m350 -58 l0 -85 -85 0 -85 0 0 85 0
85 85 0 85 0 0 -85z"/>
</g>
</svg>
