<?xml version="1.0" standalone="no"?>
<!DOCTYPE svg PUBLIC "-//W3C//DTD SVG 20010904//EN"
 "http://www.w3.org/TR/2001/REC-SVG-20010904/DTD/svg10.dtd">
<svg version="1.0" xmlns="http://www.w3.org/2000/svg"
 width="428.000000pt" height="526.000000pt" viewBox="0 0 428.000000 526.000000"
 preserveAspectRatio="xMidYMid meet">
<metadata>
Created by potrace 1.16, written by Peter Selinger 2001-2019
</metadata>
<g transform="translate(0.000000,526.000000) scale(0.100000,-0.100000)"
fill="#000000" stroke="none">
<path d="M43 5245 c-12 -9 -27 -32 -33 -53 -6 -24 -10 -284 -10 -729 l0 -693
2140 0 2140 0 0 693 c0 445 -4 705 -10 729 -21 74 176 68 -2130 68 -1847 0
-2078 -2 -2097 -15z m762 -384 c75 -37 147 -111 183 -189 24 -50 27 -69 27
-157 0 -88 -3 -107 -27 -157 -37 -80 -107 -152 -187 -191 -61 -30 -73 -32
-166 -32 -93 0 -105 2 -166 32 -80 39 -150 111 -187 191 -24 51 -27 69 -27
162 0 98 2 109 32 165 102 194 326 270 518 176z m3013 0 c74 -38 144 -110 179
-186 25 -53 28 -71 28 -160 0 -88 -3 -107 -27 -157 -37 -80 -107 -152 -187
-191 -61 -30 -73 -32 -166 -32 -93 0 -105 2 -166 32 -80 39 -150 111 -187 191
-24 50 -27 69 -27 157 0 88 3 107 27 157 94 201 333 287 526 189z m-1513 4
c80 -38 149 -110 188 -193 29 -60 32 -77 32 -157 0 -80 -3 -97 -32 -157 -39
-83 -108 -154 -188 -194 -55 -26 -69 -29 -165 -29 -96 0 -110 3 -165 29 -80
40 -149 111 -188 194 -29 60 -32 76 -32 157 0 77 4 99 27 148 52 110 128 182
233 220 79 28 213 20 290 -18z"/>
<path d="M565 4738 c-25 -7 -58 -30 -91 -63 -65 -65 -84 -130 -64 -216 19 -77
94 -152 170 -168 151 -32 283 72 283 224 0 154 -147 264 -298 223z"/>
<path d="M3595 4741 c-108 -27 -178 -116 -178 -226 0 -131 97 -228 228 -228
151 0 258 134 225 281 -10 46 -22 65 -64 107 -65 66 -129 86 -211 66z"/>
<path d="M2084 4741 c-227 -57 -232 -382 -8 -447 213 -62 380 184 247 363 -49
66 -159 104 -239 84z"/>
<path d="M2 1834 l3 -1776 33 -29 32 -29 2070 0 2070 0 32 29 33 29 3 1776 2
1776 -2140 0 -2140 0 2 -1776z m2333 1515 c352 -46 694 -240 922 -523 466
-580 423 -1406 -100 -1929 -205 -205 -437 -333 -721 -399 -132 -30 -388 -37
-527 -13 -150 25 -259 59 -388 121 -326 156 -572 409 -716 734 -131 300 -153
658 -60 985 34 120 150 350 229 455 83 111 239 260 346 332 311 207 644 285
1015 237z"/>
<path d="M1990 3200 c-213 -26 -432 -109 -599 -227 -92 -65 -238 -210 -305
-302 -96 -134 -176 -313 -214 -481 -17 -72 -34 -252 -25 -260 18 -16 176 -33
308 -32 232 0 400 36 850 182 524 170 794 221 1168 221 l189 0 -7 27 c-13 55
-68 174 -115 253 -186 309 -495 527 -848 598 -116 24 -299 33 -402 21z"/>
<path d="M2974 2140 c-258 -20 -494 -73 -864 -191 -547 -175 -648 -198 -898
-206 -113 -4 -204 -1 -263 7 -50 6 -92 10 -94 8 -2 -2 4 -45 15 -96 54 -265
161 -464 355 -657 192 -192 393 -301 658 -356 128 -26 340 -29 473 -6 475 84
863 425 1008 885 45 142 59 257 53 440 -2 89 -6 164 -8 167 -10 9 -333 13
-435 5z"/>
</g>
</svg>
