<?xml version="1.0" standalone="no"?>
<!DOCTYPE svg PUBLIC "-//W3C//DTD SVG 20010904//EN"
 "http://www.w3.org/TR/2001/REC-SVG-20010904/DTD/svg10.dtd">
<svg version="1.0" xmlns="http://www.w3.org/2000/svg"
 width="336.000000pt" height="449.000000pt" viewBox="0 0 336.000000 449.000000"
 preserveAspectRatio="xMidYMid meet">
<metadata>
Created by potrace 1.16, written by Peter Selinger 2001-2019
</metadata>
<g transform="translate(0.000000,449.000000) scale(0.100000,-0.100000)"
fill="#000000" stroke="none">
<path d="M182 4471 c-66 -23 -126 -79 -158 -146 l-24 -50 0 -2137 0 -2138
1680 0 1680 0 0 2138 0 2137 -24 50 c-30 65 -104 131 -169 150 -44 13 -241 15
-1491 15 -1373 -1 -1444 -2 -1494 -19z m2985 -133 c72 -47 73 -54 73 -422 l0
-326 -1560 0 -1560 0 0 326 c0 280 2 331 16 360 18 37 59 71 102 84 15 5 671
8 1458 7 l1430 -2 41 -27z m73 -2433 l0 -1565 -1560 0 -1560 0 0 1565 0 1565
1560 0 1560 0 0 -1565z m0 -1735 l0 -50 -1560 0 -1560 0 0 50 0 50 1560 0
1560 0 0 -50z"/>
<path d="M2684 4241 c-59 -27 -109 -75 -138 -133 -21 -42 -26 -66 -26 -127 1
-120 51 -205 152 -255 74 -37 182 -37 256 0 101 50 151 135 152 255 0 61 -5
85 -26 127 -29 58 -79 106 -138 133 -56 25 -176 25 -232 0z m197 -124 c52 -35
79 -82 79 -137 0 -85 -73 -160 -157 -160 -53 0 -92 18 -128 62 l-28 33 76 3
77 3 0 59 0 59 -76 3 -76 3 23 29 c54 68 145 87 210 43z"/>
<path d="M460 4197 c-19 -6 -50 -27 -70 -47 -97 -97 -71 -258 52 -321 36 -18
55 -20 188 -17 l148 3 39 31 c111 88 109 250 -5 329 -43 29 -46 30 -180 32
-82 1 -151 -3 -172 -10z m291 -136 c31 -32 35 -50 17 -84 -22 -41 -39 -46
-155 -47 l-111 0 -27 32 c-20 23 -25 38 -20 57 15 59 40 70 168 70 96 1 99 0
128 -28z"/>
<path d="M1197 4200 c-142 -43 -182 -238 -71 -342 45 -41 75 -48 220 -48 114
0 141 3 173 20 122 62 147 224 51 320 -20 20 -54 41 -76 48 -46 13 -253 15
-297 2z m282 -135 c34 -34 36 -68 6 -103 l-27 -32 -108 0 c-60 0 -116 3 -125
6 -18 7 -45 55 -45 79 0 9 14 30 30 47 l30 30 110 -4 c94 -3 112 -6 129 -23z"/>
<path d="M1449 3124 c-533 -96 -951 -518 -1043 -1053 -20 -120 -21 -322 -1
-437 82 -470 419 -861 867 -1008 476 -156 990 -30 1336 328 168 174 272 363
333 611 30 120 37 361 14 495 -91 547 -510 971 -1052 1065 -106 19 -350 18
-454 -1z m514 -137 c213 -56 379 -150 532 -302 59 -59 125 -137 160 -188 308
-467 245 -1076 -152 -1473 -160 -160 -358 -267 -595 -320 -102 -24 -356 -24
-456 -1 -238 55 -435 161 -595 321 -414 415 -462 1062 -113 1527 176 234 416
385 711 449 133 29 371 23 508 -13z"/>
<path d="M1470 2841 c-384 -85 -666 -354 -772 -739 -18 -65 -22 -104 -22 -252
0 -192 11 -253 74 -403 92 -221 295 -426 520 -523 131 -57 218 -76 375 -81
114 -4 158 -1 235 15 411 85 718 397 796 809 22 117 15 325 -14 435 -49 183
-135 332 -266 464 -132 131 -281 217 -464 266 -113 30 -346 35 -462 9z m377
-116 c195 -41 343 -123 479 -268 107 -112 185 -254 218 -398 l14 -60 -31 21
c-105 71 -244 113 -372 114 -197 1 -328 -61 -549 -262 -172 -156 -328 -208
-503 -167 -86 20 -176 63 -252 120 l-64 47 7 68 c35 376 330 704 706 784 86
19 262 20 347 1z m463 -742 c89 -29 162 -69 221 -122 l43 -38 -12 -89 c-29
-200 -112 -364 -257 -509 -180 -179 -377 -259 -630 -258 -159 0 -246 21 -390
92 -193 95 -339 250 -422 446 -25 58 -64 195 -56 195 3 0 18 -9 34 -21 129
-92 359 -134 514 -94 131 34 226 91 362 217 218 202 379 251 593 181z"/>
</g>
</svg>
