<?xml version="1.0" standalone="no"?>
<!DOCTYPE svg PUBLIC "-//W3C//DTD SVG 20010904//EN"
 "http://www.w3.org/TR/2001/REC-SVG-20010904/DTD/svg10.dtd">
<svg version="1.0" xmlns="http://www.w3.org/2000/svg"
 width="507.000000pt" height="355.000000pt" viewBox="0 0 507.000000 355.000000"
 preserveAspectRatio="xMidYMid meet">
<metadata>
Created by potrace 1.16, written by Peter Selinger 2001-2019
</metadata>
<g transform="translate(0.000000,355.000000) scale(0.100000,-0.100000)"
fill="#000000" stroke="none">
<path d="M1755 3536 c-170 -41 -290 -176 -318 -356 -27 -178 53 -363 194 -447
107 -64 97 -63 906 -63 593 0 754 -3 846 -15 235 -31 422 -106 543 -219 135
-124 154 -191 154 -550 0 -212 -2 -247 -14 -243 -90 35 -445 123 -635 158 -57
10 -107 21 -110 25 -3 3 -11 33 -18 67 -34 168 -154 321 -313 401 -125 62
-173 68 -527 64 -292 -4 -299 -4 -365 -30 -95 -36 -168 -83 -232 -147 -108
-110 -162 -235 -173 -397 l-6 -90 -61 -24 c-109 -41 -328 -156 -441 -230 -402
-265 -722 -626 -991 -1120 -68 -125 -76 -159 -49 -210 33 -65 -163 -60 2455
-60 2618 0 2418 -5 2454 62 16 31 17 97 13 1113 -4 1180 0 1107 -62 1291 -82
244 -284 504 -525 677 -117 83 -358 203 -505 252 -132 43 -311 80 -459 94
-161 16 -1695 13 -1761 -3z m1026 -1416 c114 -22 206 -91 260 -194 19 -36 31
-67 28 -70 -2 -3 -74 0 -159 5 -255 17 -571 -4 -825 -56 -67 -13 -130 -28
-140 -31 -16 -7 -17 -2 -13 38 7 60 47 146 92 195 43 49 140 102 204 113 70
11 491 12 553 0z"/>
</g>
</svg>
